<?xml version="1.0" encoding="utf-8"?>
<!-- Generator: Adobe Illustrator 25.2.3, SVG Export Plug-In . SVG Version: 6.00 Build 0)  -->
<svg version="1.1" id="Layer_1" xmlns="http://www.w3.org/2000/svg" xmlns:xlink="http://www.w3.org/1999/xlink" x="0px" y="0px"
	 viewBox="0 0 1178.3 394.6" style="enable-background:new 0 0 1178.3 394.6;" xml:space="preserve">
<style type="text/css">
	.st0{fill:#0495A0;}
	.st1{fill:#78E08F;}
	.st2{fill:#FFBA4D;}
</style>
<g>
	<path class="st0" d="M295.5,286.2v59.5l-5.2,2.5c-35.5,16.8-73.3,25.4-112.2,25.4H177c-15.1,0-29.4-1.3-42.5-3.8
		c-13.5-2.6-27.3-7.8-41.1-15.4c-14-7.7-26.2-17.8-36.2-30.1s-18.3-28.8-24.5-49c-6.1-20-9.3-43.4-9.3-69.6
		c0-25.9,3.1-49.3,9.3-69.4c6.3-20.4,14.5-36.9,24.5-49c10-12.1,22.1-22.1,36.1-29.9c13.8-7.6,27.6-12.8,41.1-15.3
		c13.1-2.5,27.3-3.8,42.4-3.8c35.4,0,69.5,6.3,101.3,18.5l5.8,2.2v59.4l-12.5-5.1c-29-11.9-59.5-17.9-90.5-17.9
		c-10.7,0-20.3,0.7-28.6,1.9c-7.8,1.2-16.2,4.1-25,8.7c-8.5,4.3-15.7,10.2-21.4,17.5c-5.8,7.3-10.8,18.1-14.8,31.8
		c-4.1,14-6.2,31-6.2,50.5c0,19.5,2.1,36.5,6.2,50.7c4,13.9,9,24.7,14.8,32.1c5.7,7.2,12.9,13.1,21.5,17.5c9,4.5,17.6,7.5,25.6,8.7
		c8.5,1.3,18.2,1.9,28.7,1.9c17.4,0,35.3-2.3,53.3-6.8v-23.5H295.5z"/>
	<path class="st0" d="M295.5,235.7v39.7H191.7c-22,0-39.7-17.7-39.7-39.7H295.5z"/>
	<path class="st1" d="M196.5,202.5c0,12.5-10,22.6-22.5,22.6c-0.5,0-1.1-0.1-1.6-0.2c-11.7-0.8-20.9-10.5-20.9-22.4
		c0-11.9,9.3-21.5,20.9-22.3c0.5-0.1,1.1-0.2,1.6-0.2C186.5,180,196.5,190,196.5,202.5z"/>
	<path class="st1" d="M295.5,180v44.9H234c-12.4,0.1-22.5-10-22.5-22.4c0-12.4,10.1-22.5,22.5-22.5H295.5z"/>
	<g id="LOOPS_8_">
		<path class="st2" d="M182.4,95.3c-15.5,24.8-32.7,54.5-50.7,88.5c-14.3,27.1-27.4,53.6-38.7,78.5c-0.7-2-1.3-3.9-1.9-6
			c-0.2-0.6-0.3-1.3-0.5-1.9c10.8-23.3,23-48.1,36.3-73.2c14.1-26.8,31.5-57.5,49.1-86c1.6,0,3.2-0.1,4.8-0.1
			C181.3,95.3,181.8,95.3,182.4,95.3z"/>
		<path class="st2" d="M255.9,49.3c-1.7-0.5-3.4-1-5.2-1.4c9.4-30.1,8.4-40.9,5.7-42.3c-4.5-2.4-18,10.1-37.3,35.7
			c-2.1-0.3-4.2-0.6-6.3-0.8c20.2-27.3,37.4-44.3,46.2-39.7C261.7,2.3,269.4,6.4,255.9,49.3z"/>
		<path class="st2" d="M95.5,355.5c-24.2,32.1-35.1,37.4-40.2,37.4c-1.7,0-2.7-0.6-3.4-1c-3.1-1.6-12.3-6.7,8.3-64.3
			c1.3,1.5,2.6,3.1,4.1,4.6c-14,39.8-12.9,53.4-9.9,54.9c2.8,1.5,13.6-4.5,36.3-34.4c0.9,0.5,1.7,1.1,2.6,1.6
			C94.2,354.8,94.8,355.1,95.5,355.5z"/>
		<path class="st2" d="M219,41.3c-10.6,14.1-23,32.2-36.6,54c-0.5,0-1-0.1-1.6-0.1c-1.6,0-3.2,0.1-4.8,0.1
			c12.5-20.2,25.1-39.2,36.7-54.9C214.8,40.7,216.9,41,219,41.3z"/>
		<path class="st2" d="M25.4,239.1c-2.1-2.8-4.1-5.5-6-8.2C7,213.1-5.9,189.9,2.9,180.5c4-4.3,11.3-4.6,21.8-1.3
			c-0.2,1.9-0.4,3.7-0.5,5.6c-11.9-4.1-16.1-2-17.3-0.7c-3.7,4-1.2,17.5,17,43.6c0.1,0.2,0.3,0.4,0.5,0.7
			C24.6,232.1,25,235.6,25.4,239.1z"/>
		<path class="st2" d="M228,391.1c-2.3,2.5-5.7,3.5-9.6,3.5c-11.3,0-28-8.4-41.8-16.6c-2.3-1.4-4.8-3-7.2-4.6c2.5,0.1,5,0.2,7.6,0.2
			h1.1c0.5,0,1.1-0.1,1.7-0.1c27,16.2,40.6,17.8,44.2,13.9c2.5-2.7,1.7-9-1.9-17.6c1.8-0.3,3.6-0.7,5.4-1.1
			C231.8,379.3,232.1,386.8,228,391.1z"/>
		<path class="st2" d="M179.8,373.5c-0.6,0-1.1,0.1-1.7,0.1H177c-2.6,0-5.1-0.1-7.6-0.2c-23.6-15.2-51-36.9-77.9-62
			c-4.8-4.5-9.4-9-14-13.5c-3.8,9.1-7.3,18-10.3,26.3c-1,2.8-2,5.5-2.9,8.1c-1.4-1.5-2.8-3.1-4.1-4.6c0.6-1.8,1.2-3.5,1.9-5.4
			c3.3-9,7.1-18.6,11.3-28.6c-18.8-18.9-35.3-37.6-48-54.6c-0.4-3.5-0.8-7-1-10.6c12.8,18.2,30.5,38.9,51.2,59.9
			c4.6-10.8,9.6-22.2,15-33.9c0.2,0.6,0.3,1.3,0.5,1.9c0.6,2.1,1.3,4,1.9,6c-4.8,10.3-9.2,20.5-13.2,30.1c5.1,5,10.2,10,15.5,15
			c29.4,27.5,59.3,51,84.2,65.9C179.5,373.4,179.7,373.5,179.8,373.5z"/>
		<circle class="st2" cx="232.3" cy="21.2" r="11.7"/>
		<circle class="st2" cx="56.6" cy="272.8" r="11.7"/>
	</g>
	<path class="st0" d="M416,116.3c-25.8,0-50.5,4.4-73.3,13.1l-5.8,2.2v55.1l11.9-4.1c21.7-7.4,42.3-11.1,61.4-11.1
		c19.9,0,34,3.5,42,10.5c6,5.2,10,13.6,11.8,24.9c-10.4-1-21.2-1.5-32.1-1.5c-35.7,0-64.4,7-85.2,20.9c-22,14.6-33.1,35.2-33.1,61.3
		c0,5.5,0.5,11.1,1.5,16.8c1.1,6.1,3.7,13.3,7.9,22c4.4,8.9,10.3,16.8,17.7,23.3c7.5,6.6,18,12.2,32.2,16.9c13.7,4.6,29.9,7,47.9,7
		c17.6,0,33.4-2.3,47-6.7c14.1-4.6,24.6-10.1,32-16.7c7.2-6.5,13-14.3,17.2-23c4.1-8.5,6.6-15.4,7.8-21.1c1.1-5.5,1.7-11.1,1.7-16.6
		v-67c0-33.8-9.8-60.2-29.2-78.6C477.9,125.5,450.6,116.3,416,116.3z M379.4,273.4c4.1-4.4,9.1-7.5,15.5-9.5c7.4-2.3,14.4-4,20.8-5
		c6.3-1,12.3-1.6,17.9-1.6c11.8,0.1,22.3,0.7,31.4,1.8v29.6c0,13.3-4.9,28.7-43.5,28.7h-0.7c-46.7,0-46.7-22-46.7-30.3
		C374.1,281.8,375.8,277.3,379.4,273.4z"/>
	<path class="st0" d="M652,116.3c-92.1,0-111.4,71.5-111.4,131.4c0,24.1,3.4,45,10,62.3c6.9,17.9,16.6,31.5,28.9,40.3
		c11.7,8.4,23.9,14.6,36.3,18.3c12.3,3.6,25.8,5.5,40.3,5.5h1.4c31.2,0,59.6-5.3,84.6-15.8l5.5-2.3v-59.6l-13.2,7
		c-20.7,10.9-46.2,16.4-75.9,16.4c-30.5,0-48.1-13.3-54.6-41.7h157.8l0.7-8.2c0.9-10.4,1.4-21.4,1.4-32.7
		c0-36.2-10.2-65.6-30.2-87.5C713.3,127.5,686,116.3,652,116.3z M701.3,221.8h-99c2.3-17.5,6.8-30,13.3-37.2
		c7.3-8.1,19.6-12.2,36.3-12.2c9.3,0,17.3,1.8,23.8,5.4c6.4,3.5,11.2,8.1,14.6,13.9c3.8,6.6,6.6,13.2,8.5,19.5
		C699.9,214.7,700.7,218.2,701.3,221.8z"/>
	<rect x="779" y="31.6" class="st0" width="60.5" height="338.4"/>
	<path class="st2" d="M1169,136c-6.2-20.2-14.4-36.7-24.4-49c-10-12.3-22.2-22.4-36.4-30.1c-13.9-7.6-27.8-12.8-41.2-15.4
		c-13.1-2.5-27.2-3.8-41.8-3.8c-14.7,0-28.8,1.3-41.9,3.8c-13.4,2.6-27.3,7.8-41.2,15.4c-14.2,7.7-26.4,17.9-36.4,30.1
		c-10,12.3-18.3,28.8-24.5,49c-6.1,20-9.3,43.4-9.3,69.6s3.1,49.6,9.3,69.6c6.2,20.2,14.5,36.7,24.5,49c10,12.3,22.3,22.4,36.4,30.1
		c13.9,7.6,27.8,12.8,41.3,15.4c13.1,2.5,27.2,3.8,41.9,3.8c14.7,0,28.8-1.3,41.9-3.8c13.4-2.6,27.3-7.8,41.2-15.4
		c14.1-7.7,26.4-17.9,36.4-30.1c10-12.3,18.2-28.8,24.4-49c6.1-20,9.2-43.4,9.2-69.6C1178.3,179.5,1175.2,156,1169,136z
		 M1025.1,94.8c10.3,0,19.5,0.6,27.4,1.9c7.4,1.2,15.5,4.1,24,8.6c8.2,4.3,15.1,10.2,20.5,17.4c5.5,7.4,10.2,18.2,14.1,32.1
		c3.9,14.2,5.9,31.3,5.9,50.8c0,19.5-2,36.6-5.9,50.8c-3.8,13.9-8.6,24.7-14.1,32.1c-5.4,7.2-12.3,13.1-20.5,17.4
		c-8.5,4.5-16.6,7.4-24,8.6c-7.9,1.3-17.1,1.9-27.4,1.9c-10.3,0-19.4-0.6-27.2-1.9c-7.3-1.2-15.4-4.1-23.9-8.6
		c-8.2-4.3-15.1-10.2-20.4-17.4c-5.5-7.4-10.3-18.2-14.2-32.1c-4-14.2-6-31.3-6-50.8c0-19.5,2-36.6,6-50.8
		c3.9-13.9,8.7-24.7,14.2-32.1c5.4-7.2,12.2-13,20.4-17.4c8.5-4.5,16.6-7.4,23.9-8.6C1005.6,95.5,1014.8,94.8,1025.1,94.8z"/>
</g>
</svg>
